<?xml version="1.0" standalone="no"?>
<!DOCTYPE svg PUBLIC "-//W3C//DTD SVG 20010904//EN"
 "http://www.w3.org/TR/2001/REC-SVG-20010904/DTD/svg10.dtd">
<svg version="1.0" xmlns="http://www.w3.org/2000/svg"
 width="2000.000000pt" height="2000.000000pt" viewBox="0 0 2000.000000 2000.000000"
 preserveAspectRatio="xMidYMid meet">

<defs>
  <linearGradient id="mainGradient" x1="0" y1="0" x2="0" y2="1">
    <stop offset="0%" stop-color="#2de2c5"/>
    <stop offset="100%" stop-color="#1a2a6c"/>
  </linearGradient>
</defs>

<g transform="translate(0.000000,2000.000000) scale(0.100000,-0.100000)"
fill="url(#mainGradient)" stroke="#0a1440">
<path d="M9555 18339 c-1059 -54 -2102 -300 -3060 -722 -2705 -1189 -4595
-3657 -4984 -6507 -51 -370 -71 -686 -71 -1110 0 -340 8 -504 36 -800 226
-2396 1545 -4609 3584 -6017 645 -445 1385 -818 2120 -1068 2052 -698 4329
-605 6297 256 1277 559 2372 1388 3240 2454 1002 1231 1626 2717 1797 4275 36
328 41 432 41 900 0 468 -5 572 -41 900 -74 676 -232 1336 -476 1984 -540
1434 -1508 2729 -2753 3682 -1526 1167 -3393 1793 -5320 1782 -143 0 -327 -4
-410 -9z m975 -1055 c266 -18 559 -54 818 -100 108 -19 202 -36 208 -38 8 -3
13 -1317 17 -4783 5 -4775 5 -4778 26 -4856 43 -163 136 -289 259 -349 59 -29
76 -33 147 -33 65 1 91 6 138 28 84 38 175 132 219 227 74 157 68 -293 68
4880 l0 4649 98 -33 c267 -92 616 -238 883 -372 1171 -585 2164 -1455 2879
-2524 327 -488 616 -1066 805 -1605 193 -554 318 -1135 372 -1730 9 -101 17
-326 19 -555 5 -412 -9 -646 -56 -1000 -252 -1871 -1263 -3587 -2806 -4762
-970 -739 -2120 -1239 -3317 -1442 -309 -52 -273 -53 -301 2 -37 73 -83 213
-103 309 -15 73 -18 138 -18 378 0 260 3 302 23 410 13 66 27 147 32 180 5 33
31 149 59 257 79 306 84 341 85 608 2 274 4 284 94 393 98 121 122 128 407
131 l210 3 195 60 c311 97 407 114 755 138 535 36 753 76 1157 213 309 105
367 118 596 137 166 13 204 20 275 46 95 34 345 112 465 144 89 24 136 55 114
77 -9 9 -41 5 -139 -15 -149 -32 -143 -31 -143 -13 0 8 21 22 48 32 174 63
282 121 282 149 0 20 -12 19 -90 -5 -124 -39 -211 -59 -225 -54 -33 13 -10 33
73 64 127 46 256 112 260 132 6 33 -40 30 -186 -12 -138 -40 -229 -50 -226
-25 1 6 53 28 115 51 63 22 126 46 141 52 38 16 68 48 68 73 0 20 -4 21 -52
16 -58 -7 -195 -43 -381 -100 -79 -25 -138 -37 -176 -37 -86 0 -90 10 -52 120
46 133 48 161 19 195 -16 18 -31 26 -41 22 -8 -3 -34 -41 -56 -84 -22 -43 -63
-105 -89 -138 -62 -76 -75 -102 -102 -201 -29 -110 -61 -147 -146 -174 -82
-25 -283 -54 -530 -76 -169 -16 -210 -16 -345 -5 -85 7 -239 14 -344 14 -182
1 -193 0 -262 -26 -96 -36 -190 -36 -333 -1 -77 19 -143 27 -245 31 -132 5
-148 3 -271 -26 -72 -17 -150 -31 -172 -31 -39 0 -177 33 -422 100 -80 22
-147 33 -220 37 -95 5 -118 2 -245 -28 -240 -58 -390 -44 -508 44 -26 20 -53
53 -70 88 -24 48 -28 69 -28 136 0 139 38 248 91 259 85 18 100 47 107 204 l6
118 -31 16 c-39 20 -42 39 -40 216 2 149 -10 199 -67 275 -60 78 -224 173
-342 196 -200 41 -439 -84 -535 -278 l-33 -68 0 -169 0 -170 -32 -8 c-43 -11
-49 -37 -34 -142 21 -148 34 -172 104 -190 49 -12 64 -37 82 -141 21 -118 16
-184 -21 -260 -72 -147 -233 -186 -459 -110 -184 61 -239 60 -595 -22 -370
-84 -406 -87 -631 -52 -209 32 -288 28 -494 -22 -141 -34 -221 -30 -408 19
-184 49 -246 52 -552 27 -228 -18 -407 -19 -515 -1 -143 23 -410 139 -449 195
-10 14 -24 51 -31 81 -11 48 -22 64 -79 120 -80 78 -112 119 -156 202 l-34 63
-12 -30 c-22 -55 -15 -144 16 -218 l28 -69 -21 -21 c-24 -24 12 -31 -342 63
-277 74 -301 78 -323 55 -36 -36 -3 -59 192 -130 95 -35 109 -44 95 -57 -8 -9
-119 19 -227 57 -109 39 -145 43 -154 18 -10 -26 38 -56 157 -98 142 -50 204
-83 208 -113 5 -32 -21 -29 -185 18 -163 47 -186 49 -181 18 4 -30 88 -80 192
-114 103 -34 201 -78 211 -94 11 -18 -74 -8 -217 25 -150 35 -194 32 -153 -9
28 -27 159 -94 235 -120 113 -37 218 -56 405 -72 191 -16 206 -18 325 -44 47
-10 130 -24 185 -30 216 -23 375 -59 805 -181 318 -91 414 -107 687 -114 316
-9 412 -28 728 -142 176 -64 206 -70 394 -83 85 -5 183 -15 219 -21 123 -19
203 -70 235 -149 27 -64 76 -302 107 -520 46 -316 74 -460 125 -632 73 -245
123 -446 136 -543 14 -105 7 -238 -22 -406 -20 -119 -85 -418 -92 -426 -2 -2
-49 4 -103 12 -1752 278 -3353 1154 -4510 2470 -94 107 -198 232 -276 333
l-57 73 25 36 c23 35 24 41 24 220 0 205 -6 228 -63 263 -28 18 -51 20 -195
20 l-162 0 -34 53 c-186 291 -414 750 -572 1153 -53 135 -174 483 -174 500 0
2 55 4 121 4 68 0 140 5 163 12 55 17 131 91 145 143 7 24 11 144 11 305 0
258 -1 266 -24 315 -27 58 -56 87 -111 112 -33 15 -80 18 -280 23 l-240 5 -12
85 c-22 154 -52 433 -58 545 -3 61 -8 122 -10 138 l-4 27 67 0 c37 0 131 3
209 7 l141 6 4 346 3 346 29 63 c36 78 115 153 184 176 43 15 104 16 468 14
l419 -3 48 -25 c59 -30 121 -96 150 -158 21 -45 22 -63 25 -404 l3 -358 162 0
162 0 -3 -347 c-2 -307 -1 -353 14 -392 23 -61 84 -124 144 -150 49 -21 61
-22 393 -19 315 3 345 5 381 22 53 27 104 80 130 135 20 44 21 60 21 399 l0
352 176 0 176 0 6 58 c6 72 33 127 85 174 74 67 91 69 427 66 273 -3 303 -5
339 -22 83 -41 136 -120 144 -214 l4 -52 237 -1 c253 -1 344 -8 364 -28 7 -7
13 -48 15 -104 3 -82 1 -95 -18 -120 -21 -27 -23 -27 -141 -27 -132 0 -162 -9
-195 -57 -17 -25 -19 -49 -19 -254 0 -249 3 -264 61 -299 28 -18 50 -20 193
-20 l163 0 30 -30 30 -30 -4 -125 c-4 -162 -9 -168 -138 -173 l-90 -4 0 -421
c0 -471 4 -506 64 -631 86 -178 247 -286 408 -273 76 6 168 45 231 97 44 37
109 130 138 197 52 121 50 79 49 1225 -1 635 3 1069 8 1072 5 3 289 6 630 6
441 1 623 4 628 12 4 7 3 8 -4 4 -7 -4 -12 -2 -12 3 0 6 5 11 11 11 5 0 8 4 5
9 -4 5 -3 11 1 14 5 2 3 2 -4 1 -6 -2 -14 2 -17 9 -3 7 -5 6 -5 -3 3 -35 -2
-46 -21 -47 -11 -1 -23 3 -26 9 -4 6 -3 8 3 5 6 -4 14 0 17 9 4 10 2 13 -7 9
-6 -4 -3 1 8 10 20 16 20 16 0 13 -11 -2 -27 -8 -35 -13 -13 -8 -13 -7 -1 8 7
9 21 17 30 17 9 0 23 5 31 11 15 10 7 9 -49 -6 -12 -4 -21 1 -25 11 -5 14 -4
15 9 4 12 -10 15 -9 15 6 0 16 2 17 10 4 11 -17 13 -10 4 14 -4 11 -14 13 -35
9 -24 -5 -28 -3 -23 11 5 13 9 14 20 5 21 -17 12 44 -9 66 -19 18 -23 30 -7
20 6 -3 10 -1 10 4 0 6 -7 11 -15 11 -19 0 -19 10 1 24 13 10 13 12 -5 13 -12
1 -21 -3 -21 -8 0 -6 -5 -7 -10 -4 -6 4 -8 10 -5 15 8 13 -22 19 -36 7 -11
-10 -11 -9 0 5 7 9 18 15 26 12 7 -3 16 -1 19 4 3 5 -4 12 -15 15 -12 3 -18
10 -14 16 3 6 2 11 -3 11 -6 0 -13 7 -16 16 -5 14 -4 15 8 5 10 -8 16 -9 21
-1 3 6 11 8 16 4 5 -3 7 -10 3 -15 -3 -5 -9 -7 -13 -5 -4 3 -8 -1 -8 -9 0 -20
13 -19 22 3 10 24 16 70 7 55 -10 -17 -50 -12 -57 6 -5 12 -8 13 -14 2 -7 -10
-9 -10 -14 2 -4 11 0 15 13 12 10 -2 21 3 24 11 3 8 -1 14 -9 14 -8 0 -15 5
-15 10 0 6 -4 9 -9 8 -5 -2 -8 1 -7 7 0 5 6 9 12 7 7 -1 14 4 18 13 3 8 1 14
-5 12 -6 -1 -17 9 -26 23 -14 23 -14 24 1 6 17 -21 22 -11 6 14 -7 12 -12 12
-21 3 -19 -19 -19 -43 -1 -43 12 0 13 -3 4 -12 -6 -6 -14 -9 -17 -6 -11 10
-14 48 -4 53 5 4 4 15 -3 28 -7 12 -13 27 -13 32 -2 18 16 34 33 29 15 -5 15
-4 -1 6 -9 6 -21 9 -26 5 -17 -10 -19 20 -2 38 13 15 13 18 1 15 -8 -2 -18 -7
-22 -12 -9 -14 -58 -19 -58 -6 0 6 11 8 25 6 19 -4 25 0 25 14 0 10 -4 22 -10
25 -5 3 -10 1 -10 -5 0 -6 -5 -8 -12 -4 -6 4 -17 -1 -25 -11 -7 -11 -13 -14
-13 -8 0 15 25 34 48 36 16 1 19 7 17 34 -4 34 2 40 23 23 7 -5 5 -2 -3 7 -15
17 -65 27 -65 13 0 -4 10 -11 23 -14 21 -7 21 -7 2 -15 -15 -6 -23 -3 -31 12
-7 13 -13 16 -16 7 -3 -9 -7 -9 -16 3 -11 12 -10 15 5 13 10 0 18 7 20 19 1
11 0 14 -3 8 -3 -7 -13 -13 -22 -13 -15 0 -15 2 -2 10 12 7 13 13 3 28 -8 14
-9 22 -1 30 13 13 -8 45 -23 36 -5 -3 -9 -1 -9 5 0 18 12 41 22 41 5 0 7 -4 3
-9 -3 -5 -1 -12 4 -15 5 -4 8 2 6 11 -2 10 -4 22 -4 26 -1 4 -10 3 -20 -3 -31
-16 -46 -12 -25 8 10 9 20 28 21 42 1 14 -1 19 -3 13 -3 -7 -15 -13 -27 -13
-16 0 -18 -3 -9 -9 11 -7 11 -9 -1 -14 -9 -3 -17 2 -20 13 -3 11 -2 19 2 18 3
0 15 0 26 1 15 1 17 3 6 10 -7 5 -23 6 -35 4 -15 -3 -12 1 11 17 18 12 30 26
27 31 -3 5 2 9 11 9 10 0 13 -5 9 -12 -5 -8 0 -7 11 2 18 14 18 15 -3 18 -12
2 -22 10 -22 18 0 8 -4 14 -9 14 -5 0 -7 -10 -3 -22 3 -14 2 -19 -6 -14 -7 4
-12 14 -12 22 0 12 -3 12 -20 2 -12 -8 -18 -19 -15 -28 5 -12 4 -13 -7 -2 -11
11 -10 16 6 28 14 10 16 14 5 15 -8 0 -4 4 9 9 12 5 22 15 22 21 0 9 -4 9
-14 0 -11 -9 -20 -7 -40 14 -14 14 -26 29 -26 32 0 7 31 -17 47 -37 10 -13 11
-11 6 8 -3 13 -1 22 6 22 7 0 9 5 6 10 -5 8 -12 7 -22 -1 -12 -10 -16 -10 -24
2 -11 17 -6 35 10 32 6 -2 11 2 11 7 0 6 -5 10 -11 10 -5 0 -7 4 -4 10 3 6
-1 7 -9 4 -9 -3 -13 -11 -9 -17 3 -6 1 -7 -6 -3 -6 4 -9 12 -6 17 4 5 -3 9
-14 9 -11 0 -22 4 -25 9 -4 5 3 7 14 4 12 -3 20 0 20 6 0 7 -4 10 -9 7 -5 -3
-14 1 -20 8 -7 9 -8 17 -2 20 13 9 8 30 -13 51 -14 14 -15 20 -4 27 10 8 10
9 -2 5 -8 -2 -14 -11 -12 -21 2 -9 -1 -16 -7 -16 -10 0 -9 19 2 37 8 12 -39 63
-58 63 -5 0 -3 5 5 10 18 12 30 13 29 3 -3 -20 2 -33 12 -33 8 0 8 5 -1 15
-10 12 -9 16 4 21 9 3 16 13 16 21 0 12 -3 13 -14 4 -10 -9 -16 -8 -26 4 -7 8
-17 12 -23 8 -6 -3 -7 -1 -3 5 4 7 2 12 -4 12 -6 0 -8 5 -5 10 3 6 -2 10 -11
10 -24 0 -9 13 17 15 15 1 19 -3 16 -16 -3 -11 0 -16 7 -13 27 10 12 40 -18
35 -5 -1 -6 5 -3 13 4 10 0 14 -14 13 -10 -1 -19 -5 -19 -9 0 -4 -5 -8 -11
-8 -6 0 -7 5 -2 13 4 6 8 15 8 19 0 3 4 10 9 15 5 5 6 3 2 -4 -4 -8 -1 -13
8 -13 10 0 13 6 9 17 -5 12 -2 15 10 10 14 -5 15 -3 5 18 -13 28 -19 30 -36
13 -9 -9 -12 -9 -12 0 0 7 -5 12 -11 12 -5 0 -7 -6 -3 -12 4 -7 3 -9 -1 -5
-14 13 -15 39 -1 34 7 -3 19 -1 27 3 8 5 16 5 19 -1 4 -5 14 -1 24 10 17 19
17 19 -6 17 -12 -2 -38 -6 -55 -10 -21 -5 -33 -4 -33 3 0 6 7 8 15 5 8 -4 15
-1 15 5 0 6 -5 11 -11 11 -5 0 -7 5 -4 10 3 6 11 10 16 10 6 0 8 -4 5 -9 -3
-5 0 -11 8 -14 8 -3 17 1 20 9 3 9 10 13 14 10 5 -3 9 1 9 8 0 7 -7 13 -16
12 -10 -1 -15 6 -13 17 2 9 -2 17 -7 17 -5 0 -8 -9 -6 -20 3 -13 0 -18 -7
-14 -6 4 -21 -5 -33 -20 -20 -26 -22 -26 -36 -9 -13 16 -12 17 4 4 15 -12 17
-11 17 8 0 14 -4 20 -12 15 -7 -5 -8 -3 -3 6 6 10 4 12 -8 7 -28 -11 -19 1
13 18 27 14 30 14 30 0 0 -8 5 -15 10 -15 6 0 10 7 10 15 0 8 -5 15 -11 15
-6 0 -8 9 -4 20 4 12 2 20 -5 20 -6 0 -9 -4 -6 -9 8 -12 -17 -32 -29 -23 -12
9 -15 63 -4 56 5 -3 9 -17 10 -32 l1 -27 7 25 c4 14 13 24 20 22 7 -1 10 2 6
8 -3 5 -14 10 -23 10 -15 0 -15 2 -2 10 12 8 10 10 -10 10 -27 0 -51 12 -53
26 -1 5 -7 8 -13 6 -7 -1 -9 7 -6 23 4 21 1 24 -14 19 -17 -6 -17 -5 1 9 28
23 33 21 27 -8 -3 -20 -1 -24 12 -19 9 3 16 10 16 16 0 5 -4 6 -10 3 -17 -11
-11 7 8 21 16 13 16 14 -1 8 -11 -4 -16 -2 -14 7 2 8 2 11 0 7 -3 -5 -9 -8
-14 -8 -6 0 -7 5 -4 10 5 9 -21 14 -62 13 -7 -1 -10 4 -7 9 3 5 12 7 19 4 7
-2 18 1 25 7 10 9 11 9 5 -2 -6 -10 -4 -12 4 -7 9 6 9 12 -1 24 -12 15 -11
15 13 0 20 -13 26 -13 26 -3 0 8 -3 12 -7 10 -11 -7 -33 13 -26 24 4 6 12 9
17 6 5 -4 9 -4 9 -1 0 3 -13 12 -29 20 -28 15 -29 15 -24 -5 4 -16 8 -18 14
-7 7 10 9 10 9 0 0 -7 -7 -15 -15 -18 -8 -4 -12 -10 -9 -15 3 -5 -2 -6 -10
-3 -9 3 -16 10 -16 16 0 5 4 7 9 3 6 -3 9 13 9 37 0 38 -2 40 -14 23 -8 -10
-14 -13 -14 -7 0 7 9 20 19 29 11 9 17 21 14 26 -3 6 -1 7 5 3 6 -3 13 -2
17 4 3 5 -3 10 -15 10 -12 0 -25 -10 -32 -25 -6 -13 -19 -27 -30 -31 -10 -3
-15 -10 -12 -16 5 -7 2 -8 -6 -3 -10 6 -6 14 15 31 16 13 26 27 22 31 -5 4
-12 1 -17 -7 -6 -9 -10 -10 -10 -3 0 7 8 17 18 22 15 9 14 11 -8 11 -21 1
-22 3 -7 9 10 4 18 11 17 15 -1 5 4 13 12 18 8 5 2 6 -17 2 -29 -6 -29 -6
-10 9 20 16 20 16 -3 10 -22 -5 -23 -4 -11 14 10 18 9 25 -10 49 -13 16 -28
29 -34 29 -7 0 -11 11 -9 25 3 32 8 35 27 20 13 -11 14 -10 9 5 -4 10 -1 21
7 26 9 6 10 9 2 9 -6 0 -15 -4 -18 -10 -9 -15 -25 -12 -25 6 0 8 -4 12 -10
9 -5 -3 -10 -1 -10 4 0 6 8 11 18 11 14 0 15 2 2 10 -11 7 -19 5 -28 -7 -10
-14 -14 -15 -25 -3 -7 7 -7 10 -1 7 7 -4 14 2 17 14 8 29 -31 83 -49 68 -9 -7
-14 -6 -20 3 -4 7 -4 10 1 6 12 -11 56 48 49 66 -7 18 -20 21 -29 7 -3 -6 3
-14 12 -20 15 -9 16 -10 2 -11 -23 0 -38 40 -26 70 15 38 16 68 4 65 -25 -5
-47 -18 -47 -27 0 -5 5 -6 12 -2 7 4 8 3 4 -4 -13 -21 -26 -13 -24 13 2 15 7
24 15 21 7 -3 11 3 10 14 -1 13 -5 16 -11 10 -21 -21 -28 -9 -7 13 18 20 19
26 8 35 -18 15 -30 3 -16 -15 9 -9 8 -13 0 -13 -6 0 -11 3 -12 8 0 4 -2 15
-4 25 -2 9 2 17 8 17 7 0 3 7 -7 15 -17 13 -17 15 -3 15 10 0 14 5 11 15 -4
8 -10 12 -15 9 -5 -3 -9 0 -9 5 0 6 -3 10 -7 10 -5 -1 -16 -1 -26 0 -15 1
-16 3 -5 14 7 7 22 18 33 25 15 8 16 11 5 12 -9 0 -25 -6 -36 -14 -18 -13
-20 -13 -19 2 0 10 4 23 8 29 4 6 1 13 -5 16 -7 2 -9 8 -5 13 11 12 26 -16
19 -35 -5 -13 -3 -14 10 -4 8 7 17 12 19 10 2 -1 -3 4 -11 12 -11 10 -12 14
-2 18 21 8 13 22 -11 18 -21 -4 -23 -2 -19 30 2 19 7 35 11 35 4 0 8 6 8 14
0 8 -6 12 -13 9 -9 -3 -12 49 -13 224 l-1 228 182 -185 c799 -809 1076 -1083
1123 -1110 81 -46 157 -63 249 -57 128 9 239 64 318 158 24 29 190 215 371
415 l327 364 -2 657 -3 657 -523 -580 c-288 -318 -527 -580 -530 -581 -4 -2
-385 380 -847 848 -462 468 -860 865 -884 882 -75 51 -136 70 -231 71 -100 0
-155 -17 -243 -75 -31 -22 -56 -34 -55 -27 4 16 -43 19 -62 4 -12 -9 -13 -8
-3 4 9 12 8 21 -2 40 -12 22 -14 23 -20 8 -4 -10 -11 -15 -16 -12 -16 9 -10
24 14 33 29 11 31 57 3 54 -15 -1 -15 2 4 22 13 14 29 21 37 18 12 -5 11 -1
-3 15 -13 15 -22 18 -34 12 -23 -12 -44 8 -29 27 7 7 8 13 4 13 -4 0 -3 6 3
13 7 8 6 18 -4 32 -8 11 -17 19 -19 18 -18 -10 -23 1 -15 28 5 18 7 36 3 42
-4 7 1 8 12 3 15 -5 16 -4 5 9 -10 12 -10 15 0 15 9 0 8 7 -4 25 -10 15 -12
25 -6 25 14 0 -5 20 -42 44 -16 10 -28 14 -28 8 0 -6 9 -14 20 -17 11 -3 20
-10 20 -15 0 -5 -11 -5 -24 1 -28 13 -40 47 -24 66 9 11 7 12 -8 6 -17 -6
-17 -5 -5 10 9 11 10 17 2 17 -15 0 -14 17 2 23 6 2 4 3 -5 2 -10 -2 -18 1
-18 6 0 5 -4 9 -10 9 -5 0 -10 -7 -10 -15 0 -19 -16 -20 -23 0 -4 8 -15 12
-26 10 -17 -3 -19 -1 -9 14 6 10 22 19 35 19 21 0 22 -2 7 -13 -11 -7 -13
-14 -7 -18 12 -8 39 20 30 30 -4 3 -1 13 6 21 8 11 8 14 0 9 -6 -4 -13 -4
-16 0 -2 5 -2 2 -1 -4 2 -8 -6 -13 -19 -13 -13 0 -17 3 -11 8 13 8 15 44 2
36 -4 -3 -8 4 -8 16 0 13 -4 19 -11 14 -6 -4 -5 4 2 17 l14 24 3 -27 c2 -16
8 -28 13 -28 6 0 8 4 5 9 -3 5 2 12 11 15 12 5 13 10 5 18 -6 6 -8 16 -5 23
2 8 -5 18 -16 25 -12 6 -21 17 -21 25 0 12 -3 12 -20 -2 -12 -11 -16 -21 -10
-28 11 -13 9 -55 -2 -55 -4 0 -8 13 -8 29 0 17 -4 33 -10 36 -5 3 -10 11 -10
16 0 6 4 8 9 4 5 -3 12 -1 16 5 3 5 1 10 -4 10 -6 0 -11 6 -11 14 0 9 9 12
28 10 27 -4 27 -4 2 5 -33 10 -53 3 -46 -18 5 -12 3 -12 -8 2 -8 10 -17 18
-20 17 -14 -3 -30 8 -23 16 4 5 11 4 15 -1 11 -15 34 -17 30 -3 -3 7 -11 13
-18 13 -18 0 -24 21 -9 31 8 5 9 3 4 -6 -6 -10 -4 -12 9 -7 10 4 15 3 11 -3
-8 -13 5 -13 25 0 11 7 12 10 2 10 -9 0 -11 7 -7 19 4 12 0 21 -11 25 -14 5
-15 4 -4 -9 8 -9 8 -15 2 -15 -6 0 -14 5 -17 11 -4 6 -13 8 -20 5 -8 -3 -16
0 -19 7 -2 7 -5 4 -5 -5 -1 -10 4 -18 11 -18 6 0 9 -2 6 -5 -3 -3 -12 -3 -21
1 -13 5 -14 10 -5 30 12 26 24 31 30 12 2 -6 10 -8 17 -4 9 6 8 12 -5 27 -9
10 -19 17 -23 15 -3 -2 -12 3 -19 10 -11 13 -10 14 12 10 14 -3 28 0 32 5 3
5 2 9 -3 8 -20 -4 -27 2 -13 12 13 10 13 10 -1 6 -18 -6 -43 28 -34 46 4 7
-1 3 -10 -8 -15 -19 -16 -19 -12 2 2 13 6 26 10 29 16 16 5 23 -18 12 -19
-8 -28 -8 -40 2 -8 7 -12 16 -9 21 3 5 1 9 -4 9 -5 0 -12 10 -15 23 -6 21
-6 21 13 -3 10 -13 16 -28 14 -32 -2 -3 -1 -9 3 -11 5 -3 16 10 25 29 10 19
13 34 8 34 -6 0 -9 5 -8 11 2 6 -4 14 -12 16 -13 4 -13 3 0 -6 8 -6 10 -11
4 -11 -12 0 -34 21 -34 33 0 5 8 6 17 3 10 -4 14 -4 11 0 -4 3 2 14 13 23 20
16 20 17 -5 19 -18 1 -26 -3 -26 -14 0 -8 -4 -13 -9 -10 -4 3 -8 18 -7 33 1
22 5 27 21 25 11 -2 17 -1 13 3 -5 5 -22 10 -48 14 -3 1 -7 13 -8 27 -1 14
-5 31 -9 37 -8 13 -10 19 -12 42 0 8 -8 15 -17 15 -8 0 -12 4 -9 10 10 15 44
-11 38 -29 -5 -13 -4 -14 8 -3 12 11 11 16 -6 31 -11 9 -21 23 -23 31 -2 8
-8 21 -13 30 -9 13 -10 13 -5 -2 3 -12 1 -15 -10 -11 -8 3 -14 -1 -14 -10 0
-11 7 -13 23 -10 12 3 18 2 14 -2 -15 -17 -36 -13 -52 11 -14 21 -14 23 1 17
12 -4 15 -2 12 8 -3 8 -10 14 -16 14 -7 0 -12 5 -11 10 0 6 7 9 16 7 9 -2 12
1 8 8 -9 14 26 9 38 -5 5 -6 7 -5 5 3 -2 8 -7 13 -12 12 -5 -1 -16 10 -26 25
l-18 27 -17 -24 c-11 -14 -15 -17 -12 -5 4 10 1 17 -6 17 -8 0 -6 4 3 10 13
8 12 11 -5 25 -19 14 -19 15 -1 8 13 -4 17 -3 12 5 -5 8 0 12 13 12 12 0 21
5 21 11 0 5 -5 7 -12 3 -8 -5 -9 -2 -5 9 10 27 -33 43 -63 22 -13 -9 -13 -8
0 10 8 11 20 24 25 28 6 5 3 7 -7 3 -10 -3 -18 -1 -18 4 0 6 8 11 18 11 16 1
16 2 0 6 -27 7 -21 24 6 19 18 -3 23 -1 19 10 -7 19 -28 18 -48 -2 -13 -14
-14 -19 -3 -25 8 -6 9 -9 1 -9 -7 0 -9 -9 -6 -22 3 -13 3 -21 0 -18 -3 3 -7
14 -9 25 -1 11 -7 23 -13 27 -6 5 -5 8 3 8 6 0 12 6 12 13 0 25 447 202 760
300 949 298 1896 410 2890 341z m1720 -549 l0 -45 -212 0 c-116 0 -208 -3
-204 -7 4 -4 98 -55 209 -113 l202 -106 3 -45 3 -44 -218 -112 -218 -113 218
0 217 0 0 -45 0 -45 -250 0 -250 0 0 73 0 72 217 109 217 108 -155 80 c-85
44 -182 96 -216 115 l-63 34 0 64 0 65 250 0 250 0 0 -45z m-5380 -149 c0 -2
-7 -7 -16 -10 -8 -3 -12 -2 -9 4 6 10 25 14 25 6z m65 -64 c-10 -10 -15 -11
-11 -4 4 6 2 12 -4 12 -6 0 -8 5 -5 10 4 6 11 8 16 5 5 -4 9 0 10 7 0 10 2
10 6 0 3 -8 -3 -21 -12 -30z m-42 -7 c-3 -9 -8 -14 -10 -11 -3 3 -2 9 2 15 9
16 15 13 8 -4z m92 -96 c-10 -15 -25 -10 -19 6 4 8 10 12 15 9 5 -3 7 -10 4
-15z m-43 -51 c7 -17 -1 -38 -14 -38 -7 0 -7 4 1 13 8 10 7 17 -1 25 -8 8 -9
12 -1 12 6 0 13 -6 15 -12z m62 -84 c9 -25 2 -26 -17 -4 -13 16 -14 20 -3 20
8 0 17 -7 20 -16z m-32 -11 c-6 -2 -9 -10 -6 -15 4 -7 2 -8 -5 -4 -13 9 -5 26
12 25 9 0 8 -2 -1 -6z m78 -98 c0 -1 -7 -8 -15 -15 -13 -10 -15 -9 -15 8 0 15
5 20 15 16 8 -4 15 -7 15 -9z m40 -130 c0 -5 -5 -3 -10 5 -5 8 -10 20 -10 25
0 6 5 3 10 -5 5 -8 10 -19 10 -25z m31 -38 c-10 -9 -11 -8 -5 6 3 10 9 15 12
12 3 -3 0 -11 -7 -18z m-1 -97 c0 -5 -4 -10 -10 -10 -5 0 -10 5 -10 10 0 6 5
10 10 10 6 0 10 -4 10 -10z m13 -45 c-3 -9 -8 -14 -10 -11 -3 3 -2 9 2 15 9
16 15 13 8 -4z m5117 -35 l0 -50 -250 0 -250 0 0 50 0 50 250 0 250 0 0 -50z
m-5056 31 c4 -5 -3 -7 -14 -4 -23 6 -26 13 -6 13 8 0 17 -4 20 -9z m-37 -61
c-5 -31 -17 -37 -15 -7 1 15 6 27 10 27 4 0 7 -9 5 -20z m176 -200 c9 -11 14
-20 11 -20 -4 0 -1 -7 6 -15 7 -9 8 -15 2 -15 -5 0 -13 7 -16 16 -5 14 -9 14
-23 3 -15 -13 -15 -12 -4 9 7 14 8 22 1 22 -5 0 -10 5 -10 10 0 16 14 12 33
-10z m4762 1 c120 -55 155 -155 155 -443 l0 -158 -251 0 -250 0 4 208 c4 226
10 258 60 323 63 83 187 114 282 70z m-4840 -59 c-3 -3 -11 0 -18 7 -9 10 -8
11 6 5 10 -3 15 -9 12 -12z m12 -28 c-3 -3 -12 -4 -19 -1 -8 3 -5 6 6 6 11 1
17 -2 13 -5z m118 -163 c3 -41 -6 -58 -26 -46 -6 5 -4 12 8 21 22 16 10 18
-20 3 -16 -7 -14 -4 6 11 26 21 29 48 4 33 -7 -4 -6 1 2 10 18 22 22 18 26
-32z m-45 30 c0 -6 -4 -13 -10 -16 -5 -3 -10 1 -10 9 0 9 5 16 10 16 6 0 10
-4 10 -9z m94 -107 c17 -7 22 -34 6 -34 -5 0 -10 6 -10 14 0 8 -6 17 -12 19
-7 3 -10 6 -6 6 3 1 13 -2 22 -5z m43 -11 c-4 -3 -2 -12 4 -19 6 -8 7 -23 3
-36 -4 -13 -7 -28 -6 -35 5 -23 -21 -26 -38 -5 -10 12 -21 18 -25 14 -5 -4
-5 -1 -1 6 10 17 37 15 30 -2 -3 -8 0 -17 7 -22 9 -5 10 -2 6 9 -4 10 -1 17
5 17 7 0 3 6 -7 14 -15 10 -25 11 -40 4 -15 -8 -17 -8 -9 1 6 7 20 14 30 15
11 2 20 12 22 24 2 12 8 22 14 22 6 0 8 -3 5 -7z m-41 -170 c-6 -17 -5 -17 7
-2 11 15 16 15 46 3 36 -15 35 -26 -1 -31 -16 -3 -18 0 -10 10 9 10 8 14 -3
14 -8 0 -15 -4 -15 -8 0 -4 -8 -6 -17 -5 -10 2 -17 6 -15 9 1 4 2 12 2 17 0
6 3 10 6 10 3 0 3 -8 0 -17z m80 -119 c1 -9 -1 -13 -4 -9 -4 4 -7 10 -7 13 0
4 -4 14 -9 22 -7 12 -6 13 4 3 8 -7 15 -20 16 -29z m44 26 c0 -5 -5 -10 -11
-10 -5 0 -7 5 -4 10 3 6 8 10 11 10 2 0 4 -4 4 -10z m4690 -144 l0 -54 -80
-47 -80 -46 2 -161 3 -161 77 -41 78 -41 0 -52 0 -51 -250 145 -251 146 3 56
3 55 245 153 c135 84 246 152 248 153 1 0 2 -24 2 -54z m-4642 -58 c-2 -11
-11 -22 -21 -24 -9 -1 -15 2 -11 7 3 5 10 7 15 4 5 -4 9 -1 9 4 0 6 -8 11
-17 12 -15 0 -15 2 2 9 11 5 21 9 23 9 2 1 2 -9 0 -21z m4397 -681 l240 -143
3 -50 3 -51 -228 -133 c-125 -73 -238 -140 -251 -148 l-23 -15 3 54 3 54 70
38 c39 21 139 75 223 119 l154 81 -89 46 c-48 26 -150 82 -225 125 l-138 77
0 45 c0 24 3 44 8 44 4 0 115 -65 247 -143z m-5868 -323 c70 -56 73 -70 73
-329 0 -220 -1 -232 -23 -270 -30 -52 -76 -82 -141 -90 -30 -4 -134 -5 -232
-3 -200 4 -221 10 -271 75 l-28 36 -3 231 c-2 147 1 244 8 268 11 39 77 104
114 111 11 3 121 4 243 3 l221 -1 39 -31z m5868 -677 l240 -143 3 -50 3 -51
-228 -133 c-125 -73 -238 -140 -251 -148 l-23 -15 3 54 3 54 70 38 c39 21 139
75 223 119 l154 81 -89 46 c-48 26 -150 82 -225 125 l-138 77 0 45 c0 24 3
44 8 44 4 0 115 -65 247 -143z m-7423 -169 c56 -17 131 -87 157 -148 21 -50
22 -60 19 -388 -3 -323 -4 -339 -25 -377 -28 -53 -78 -99 -133 -124 -42 -19
-65 -21 -375 -21 -326 0 -331 0 -380 24 -60 29 -107 76 -134 136 -19 42 -21
65 -21 375 0 325 1 331 24 380 26 57 99 127 148 142 48 16 669 16 720 1z
m3853 -358 c3 -6 -1 -7 -9 -4 -18 7 -21 14 -7 14 6 0 13 -4 16 -10z m3663 -96
c86 -43 139 -139 157 -285 14 -113 -30 -276 -93 -342 -61 -65 -171 -89 -252
-54 -158 66 -221 355 -123 564 58 125 193 176 311 117z m-3593 -73 c3 -6 -5
-15 -17 -21 -21 -10 -21 -10 -6 3 10 8 15 17 11 20 -3 4 -4 7 0 7 3 0 8 -4
12 -9z m20 -80 c-3 -5 -1 -12 5 -16 5 -3 10 0 10 7 0 9 3 9 10 -2 5 -8 10 -19
10 -25 0 -5 -5 -3 -10 5 -5 8 -10 11 -10 6 0 -11 -30 14 -30 25 0 5 5 9 11 9
5 0 8 -4 4 -9z m52 -133 c2 -18 0 -20 -7 -8 -12 18 -13 30 -2 30 4 0 9 -10 9
-22z m65 -65 c10 -9 18 -21 18 -27 0 -6 -4 -5 -9 2 -6 11 -11 10 -25 -3 -17
-17 -12 -40 6 -29 7 4 8 2 4 -5 -12 -19 -32 4 -30 36 3 51 6 53 36 26z m13
-143 c3 -5 1 -10 -4 -10 -6 0 -11 5 -11 10 0 6 2 10 4 10 3 0 8 -4 11 -10z
m59 -88 c3 -5 -1 -9 -9 -9 -8 0 -12 4 -9 9 3 4 7 8 9 8 2 0 6 -4 9 -8z m46
-122 c0 -5 -7 -7 -15 -4 -8 4 -15 8 -15 10 0 2 7 4 15 4 8 0 15 -4 15 -10z
m3418 -259 c-40 -42 -99 -103 -130 -136 l-58 -60 45 -68 45 -67 85 0 85 0 0
-45 0 -45 -250 0 -250 0 0 45 0 45 118 0 c65 0 121 3 125 6 3 3 -51 90 -119
193 l-125 188 3 59 3 59 94 -147 c52 -82 97 -148 102 -148 4 0 72 72 151 160
l143 160 3 -62 3 -62 -73 -75z m-6352 -28 c51 -27 98 -80 115 -130 20 -54 20
-552 0 -606 -18 -52 -67 -106 -116 -128 -36 -17 -70 -19 -315 -19 -246 0 -279
2 -316 19 -53 24 -109 91 -123 146 -18 70 -15 532 4 584 28 79 89 135 166
151 24 5 157 8 294 7 236 -2 252 -4 291 -24z m3104 -68 c0 -8 -4 -15 -10 -15
-5 0 -7 7 -4 15 4 8 8 15 10 15 2 0 4 -7 4 -15z m129 -498 c8 -10 7 -14 -2
-14 -8 0 -14 6 -14 14 0 7 1 13 2 13 2 0 8 -6 14 -13z m3191 -43 l0 -46 -192
-199 c-106 -109 -194 -203 -196 -209 -2 -6 66 -10 192 -10 l196 0 0 -45 0 -45
-250 0 -250 0 0 53 0 52 195 195 c107 107 195 198 195 202 0 5 -88 8 -195 8
l-195 0 0 45 0 45 250 0 250 0 0 -46z m-3147 6 c3 -11 1 -18 -4 -14 -5 3 -9
12 -9 20 0 20 7 17 13 -6z m63 -67 c-10 -11 -19 -7 -22 10 -2 15 0 16 12 6 8
-6 12 -14 10 -16z m64 -191 c0 -5 -7 -9 -15 -9 -8 0 -15 4 -15 9 0 4 7 8 15
8 8 0 15 -4 15 -8z m70 -153 c0 -5 -4 -7 -10 -4 -5 3 -10 2 -10 -3 0 -14 -28
-23 -35 -11 -4 5 4 13 17 18 31 13 38 13 38 0z m0 -103 c0 -2 -7 -7 -16 -10
-8 -3 -12 -2 -9 4 6 10 25 14 25 6z m20 -26 c-24 -15 -31 -11 -18 10 9 13 16
16 23 9 7 -7 5 -13 -5 -19z m53 -165 c4 -8 3 -16 -1 -19 -4 -3 -9 4 -9 15 -2
23 3 25 10 4z m2877 -275 l0 -280 -250 0 -250 0 0 270 0 270 25 0 25 0 0
-225 0 -225 80 0 80 0 0 216 0 215 28 -3 27 -3 3 -213 2 -213 88 3 87 3 3 233
2 232 25 0 25 0 0 -280z m-2836 174 c3 -8 2 -12 -4 -9 -6 3 -10 10 -10 16 0
14 7 11 14 -7z m27 -117 c-10 -9 -11 -8 -5 6 3 10 9 15 12 12 3 -3 0 -11 -7
-18z m48 -73 c-14 -13 -16 -13 -16 0 0 8 4 13 9 10 4 -3 8 0 8 7 0 7 3 9 7 5
4 -3 0 -13 -8 -22z m-1431 -335 c41 -14 56 -61 51 -162 -6 -112 -13 -117 -155
-117 -149 0 -154 4 -154 138 0 100 9 128 43 142 32 13 178 12 215 -1z m4192
-155 l0 -46 -192 -199 c-106 -110 -194 -204 -196 -209 -2 -6 71 -10 192 -10
l196 0 0 -45 0 -45 -250 0 -250 0 0 53 0 52 195 195 c107 107 195 198 195 202
0 5 -88 8 -195 8 l-195 0 0 45 0 45 250 0 250 0 0 -46z m0 -779 l0 -45 -250 0
-250 0 0 45 0 45 250 0 250 0 0 -45z m0 -280 l0 -45 -210 -2 -209 -3 210 -110
209 -110 -2 -45 -3 -45 -215 -110 -215 -110 218 -3 217 -2 0 -45 0 -45 -250 0
-250 0 0 75 0 75 217 108 217 109 -217 112 -217 112 0 65 0 64 250 0 250 0 0
-45z"/>
<path d="M7084 16248 c18 -10 18 -11 2 -24 -20 -14 -15 -29 17 -44 21 -11 21
-11 2 5 -16 13 -17 19 -8 34 12 19 0 41 -21 41 -6 0 -2 -6 8 -12z"/>
<path d="M7057 16239 c7 -7 15 -10 18 -7 3 3 -2 9 -12 12 -14 6 -15 5 -6 -5z"/>
<path d="M7168 16053 c7 -3 16 -2 19 1 4 3 -2 6 -13 5 -11 0 -14 -3 -6 -6z"/>
<path d="M7140 15990 c-8 -5 -11 -12 -7 -16 4 -4 13 -2 19 4 15 15 7 24 -12
12z"/>
<path d="M7228 15893 c7 -3 16 -2 19 1 4 3 -2 6 -13 5 -11 0 -14 -3 -6 -6z"/>
<path d="M7240 15840 c-9 -6 -10 -10 -3 -10 6 0 15 5 18 10 8 12 4 12 -15 0z"/>
<path d="M7374 15513 c2 -9 8 -18 15 -19 7 -2 7 0 1 3 -8 3 -7 9 1 19 9 11 8
14 -4 14 -9 0 -14 -7 -13 -17z"/>
<path d="M7423 15505 c0 -8 4 -12 9 -9 5 3 6 10 3 15 -9 13 -12 11 -12 -6z"/>
<path d="M7490 15140 c0 -6 7 -10 15 -10 8 0 15 2 15 4 0 2 -7 6 -15 10 -8 3
-15 1 -15 -4z"/>
<path d="M7534 15035 c-4 -8 -11 -12 -17 -8 -6 3 -7 1 -3 -5 10 -16 14 -15 26
8 6 11 8 20 5 20 -3 0 -8 -7 -11 -15z"/>
<path d="M7606 14973 c-17 -5 -54 -33 -43 -33 8 0 67 31 67 36 0 2 -1 3 -2 3
-2 -1 -12 -4 -22 -6z"/>
<path d="M7572 14931 c-11 -6 -9 -9 7 -14 12 -3 22 1 25 9 6 16 -12 18 -32 5z"/>
<path d="M7598 14888 c10 -13 10 -17 0 -22 -7 -3 -3 -3 10 0 14 3 22 1 22 -7
0 -7 3 -10 6 -6 3 3 1 14 -5 24 -6 10 -11 14 -11 9 0 -5 -8 -2 -17 5 -16 13
-17 12 -5 -3z"/>
<path d="M7560 14881 c0 -18 12 -41 22 -41 7 0 6 5 -1 13 -6 8 -8 16 -5 19 3
3 1 9 -5 13 -6 3 -11 2 -11 -4z"/>
<path d="M7678 14873 c7 -3 16 -2 19 1 4 3 -2 6 -13 5 -11 0 -14 -3 -6 -6z"/>
<path d="M14294 14186 c-28 -13 -172 -184 -202 -243 -17 -31 -15 -74 6 -105
23 -34 207 -176 239 -184 51 -13 85 8 161 101 103 128 126 168 119 212 -4 19
-14 44 -24 55 -33 37 -182 149 -218 163 -41 18 -42 18 -81 1z"/>
<path d="M15148 13552 c-37 -23 -148 -166 -158 -204 -16 -53 -1 -72 123 -167
70 -52 107 -63 148 -41 10 6 50 51 89 101 89 116 92 142 23 206 -58 54 -160
123 -182 123 -9 0 -28 -8 -43 -18z"/>
<path d="M15654 13181 c-91 -23 -183 -94 -272 -208 l-32 -41 45 -38 c26 -21
53 -50 61 -65 17 -34 18 -102 2 -132 -14 -27 -161 -219 -207 -269 -61 -69
-144 -71 -224 -7 l-40 32 -17 -23 c-12 -16 -16 -35 -12 -65 3 -27 -2 -54 -12
-76 -20 -42 -227 -301 -258 -323 -39 -28 -84 -31 -114 -7 -48 38 -67 29 -137
-68 -52 -71 -58 -104 -26 -144 l20 -27 -670 -884 -671 -885 2 -709 3 -708 450
593 c1657 2184 2521 3325 2550 3369 94 142 111 327 44 470 -34 72 -109 146
-186 185 -62 30 -77 33 -168 36 -55 1 -114 -2 -131 -6z m-454 -1112 c114 -98
115 -113 25 -227 -98 -124 -114 -126 -223 -26 -100 90 -100 108 -6 225 90 111
105 113 204 28z m-272 -765 c23 -19 42 -44 42 -53 0 -29 -58 -101 -81 -101
-31 0 -99 57 -99 84 0 29 57 106 79 106 10 0 36 -16 59 -36z"/>
<path d="M14353 13121 c-35 -22 -235 -267 -270 -333 -51 -93 -28 -140 139
-271 70 -56 143 -110 161 -119 41 -23 104 -23 143 1 41 25 273 323 285 366
11 40 -2 98 -29 131 -22 28 -254 211 -290 230 -38 20 -101 17 -139 -5z"/>
<path d="M8402 12864 c-9 -10 -7 -12 8 -11 11 1 21 6 24 12 6 16 -17 15 -32
-1z"/>
<path d="M8424 12734 c-18 -14 -18 -15 4 -4 12 6 22 13 22 15 0 8 -5 6 -26
-11z"/>
<path d="M8506 12732 c-3 -5 1 -9 9 -9 8 0 12 4 9 9 -3 4 -7 8 -9 8 -2 0 -6
-4 -9 -8z"/>
<path d="M8470 12680 c0 -5 5 -10 11 -10 5 0 7 5 4 10 -3 6 -8 10 -11 10 -2 0
-4 -4 -4 -10z"/>
<path d="M8576 12528 c3 -5 10 -6 15 -3 13 9 11 12 -6 12 -8 0 -12 -4 -9 -9z"/>
<path d="M8555 12480 c3 -5 8 -10 11 -10 2 0 4 5 4 10 0 6 -5 10 -11 10 -5 0
-7 -4 -4 -10z"/>
<path d="M8595 12459 c-4 -6 -5 -12 -2 -15 2 -3 7 2 10 11 7 17 1 20 -8 4z"/>
<path d="M8567 12416 c-4 -10 -1 -13 9 -9 15 6 19 23 5 23 -5 0 -11 -7 -14
-14z"/>
<path d="M8540 12390 c0 -5 5 -10 11 -10 5 0 7 5 4 10 -3 6 -8 10 -11 10 -2 0
-4 -4 -4 -10z"/>
<path d="M8588 12373 c7 -3 16 -2 19 1 4 3 -2 6 -13 5 -11 0 -14 -3 -6 -6z"/>
<path d="M8603 12329 c1 -11 11 -25 22 -30 19 -10 19 -9 2 4 -10 8 -14 17 -9
18 6 2 4 10 -3 16 -11 10 -13 9 -12 -8z"/>
<path d="M8621 12197 c2 -1 12 -9 22 -16 15 -12 17 -12 11 3 -3 9 -13 16 -22
16 -8 0 -13 -1 -11 -3z"/>
<path d="M8685 12130 c-3 -5 -1 -10 4 -10 6 0 11 5 11 10 0 6 -2 10 -4 10 -3
0 -8 -4 -11 -10z"/>
<path d="M8716 12043 c-9 -22 -4 -24 17 -8 14 10 15 14 3 18 -8 3 -17 -1 -20
-10z"/>
<path d="M8810 11886 c0 -2 7 -7 16 -10 8 -3 12 -2 9 4 -6 10 -25 14 -25 6z"/>
<path d="M8816 11832 c-3 -5 1 -9 9 -9 8 0 15 4 15 9 0 4 -4 8 -9 8 -6 0 -12
-4 -15 -8z"/>
<path d="M8795 11730 c4 -6 11 -7 17 -4 8 5 9 1 5 -10 -6 -14 -3 -15 13 -6 11
6 20 13 20 16 0 3 -4 2 -10 -1 -5 -3 -10 -1 -10 4 0 6 -9 11 -21 11 -11 0 -17
-5 -14 -10z"/>
<path d="M8845 11570 c3 -5 11 -10 16 -10 6 0 7 5 4 10 -3 6 -11 10 -16 10
-6 0 -7 -4 -4 -10z"/>
<path d="M8993 11338 c4 -11 -1 -19 -14 -23 -16 -5 -18 -10 -8 -21 10 -12 14
-10 26 13 10 20 11 29 2 37 -9 8 -10 7 -6 -6z"/>
<path d="M9013 11254 c-15 -16 -16 -24 -4 -24 8 0 24 30 19 35 -2 2 -9 -3
-15 -11z"/>
<path d="M9035 11219 c10 -33 18 -40 35 -29 13 8 12 10 -2 10 -10 0 -18 6
-18 14 0 8 -5 18 -11 22 -8 4 -9 -1 -4 -17z"/>
<path d="M9006 11205 c4 -8 8 -15 10 -15 2 0 4 7 4 15 0 8 -4 15 -10 15 -5 0
-7 -7 -4 -15z"/>
<path d="M9116 11183 c-6 -14 -5 -15 5 -6 7 7 10 15 7 18 -3 3 -9 -2 -12 -12z"/>
<path d="M9060 11160 c0 -5 5 -10 11 -10 5 0 7 5 4 10 -3 6 -8 10 -11 10 -2 0
-4 -4 -4 -10z"/>
<path d="M9040 11145 c7 -8 20 -14 29 -14 13 1 13 2 -1 6 -10 2 -18 9 -18 14
0 5 -5 9 -11 9 -8 0 -8 -5 1 -15z"/>
<path d="M9093 11135 c0 -8 4 -15 9 -15 4 0 8 4 8 9 0 6 -4 12 -8 15 -5 3
-9 -1 -9 -9z"/>
<path d="M9052 11100 c-9 -14 -9 -21 0 -26 7 -4 8 -3 4 4 -4 7 -3 12 3 12 5 0
13 -9 16 -20 3 -11 11 -20 16 -20 15 0 10 25 -9 48 -18 20 -18 20 -30 2z"/>
<path d="M9164 10979 c-3 -6 -1 -16 4 -21 8 -8 11 -5 9 11 -1 24 -3 25 -13 10z"/>
<path d="M9220 10775 c0 -5 5 -17 10 -25 5 -8 10 -10 10 -5 0 6 -5 17 -10 25
-5 8 -10 11 -10 5z"/>
<path d="M9280 10731 c0 -7 -4 -9 -10 -6 -5 3 -10 1 -10 -4 0 -6 4 -11 9 -11
13 0 25 20 17 27 -3 4 -6 1 -6 -6z"/>
<path d="M9245 10620 c-23 -10 -22 -10 24 -17 31 -4 32 -3 18 11 -8 9 -17 16
-19 15 -2 0 -12 -4 -23 -9z"/>
<path d="M9270 10578 c0 -4 4 -8 9 -8 6 0 12 4 15 8 3 5 -1 9 -9 9 -8 0 -15
-4 -15 -9z"/>
<path d="M9326 10463 c-5 -12 -4 -13 7 -5 8 7 16 9 19 6 3 -3 8 -1 11 3 3 5
-3 9 -13 10 -10 1 -21 -5 -24 -14z"/>
<path d="M9372 10403 c-1 -12 3 -23 8 -23 5 0 7 7 4 15 -4 8 -1 15 5 15 6 0
11 4 11 8 0 20 -26 6 -28 -15z"/>
<path d="M9406 10393 c-6 -14 -5 -15 5 -6 7 7 10 15 7 18 -3 3 -9 -2 -12 -12z"/>
<path d="M9365 10341 c-3 -5 -1 -12 5 -16 5 -3 10 1 10 9 0 18 -6 21 -15 7z"/>
<path d="M9450 10270 c0 -5 5 -10 11 -10 5 0 7 5 4 10 -3 6 -8 10 -11 10 -2 0
-4 -4 -4 -10z"/>
<path d="M9499 10093 c0 -5 -2 -16 -4 -26 -2 -11 -1 -16 3 -13 8 8 14 46 7
46 -3 0 -5 -3 -6 -7z"/>
<path d="M9530 9953 c0 -19 21 -27 33 -13 9 10 9 11 -2 5 -8 -4 -17 -2 -22 6
-6 9 -9 10 -9 2z"/>
<path d="M9570 9920 c0 -5 5 -10 11 -10 5 0 7 5 4 10 -3 6 -8 10 -11 10 -2 0
-4 -4 -4 -10z"/>
<path d="M6649 8741 c-44 -14 -77 -41 -93 -76 -13 -26 -16 -69 -16 -210 0
-189 4 -207 55 -255 26 -25 28 -25 238 -28 197 -2 214 -1 244 17 62 38 68 64
68 273 0 173 -2 189 -21 214 -49 67 -58 69 -262 71 -103 1 -199 -2 -213 -6z"/>
<path d="M4135 8406 c-62 -29 -107 -76 -137 -141 -23 -49 -23 -57 -23 -385 0
-328 0 -336 23 -385 30 -65 75 -112 137 -141 50 -24 52 -24 410 -24 356 0 360
0 410 24 62 28 111 77 139 136 20 43 21 59 21 385 0 264 -3 349 -14 379 -19
54 -86 124 -146 152 -50 24 -54 24 -410 24 -358 0 -360 0 -410 -24z"/>
<path d="M6066 8099 c-25 -29 -26 -35 -26 -158 0 -121 1 -129 24 -154 31 -33
69 -40 205 -35 105 3 112 4 138 30 25 26 28 35 31 128 5 122 -2 165 -33 196
-23 23 -30 24 -169 24 l-144 0 -26 -31z"/>
<path d="M6803 7940 c-45 -27 -56 -72 -51 -216 6 -185 11 -189 249 -189 164 0
168 1 193 24 37 35 49 90 44 216 -6 176 -17 185 -246 185 -138 0 -161 -2
-189 -20z"/>
<path d="M6126 7274 c-12 -11 -16 -36 -16 -94 0 -70 2 -81 22 -94 29 -21 156
-22 183 -2 27 20 35 145 11 181 -15 23 -22 25 -101 25 -63 0 -87 -4 -99 -16z"/>
<path d="M11890 15498 c-19 -13 -45 -45 -59 -73 -23 -45 -26 -62 -30 -192 l-3
-143 198 2 199 3 -3 135 c-2 148 -10 185 -50 232 -35 42 -79 58 -155 58 -50 0
-71 -5 -97 -22z"/>
<path d="M11930 14620 c-58 -33 -111 -63 -118 -67 -9 -5 26 -28 104 -68 64
-33 120 -61 125 -63 5 -2 9 55 9 127 0 72 -3 131 -7 130 -5 0 -55 -27 -113
-59z"/>
<path d="M11915 12403 c-84 -44 -119 -117 -120 -248 0 -79 3 -97 28 -147 33
-67 66 -93 136 -110 137 -31 242 77 244 251 1 125 -40 213 -117 251 -51 24
-128 26 -171 3z"/>
<path d="M8615 12140 c-3 -5 1 -10 10 -10 9 0 13 5 10 10 -3 6 -8 10 -10 10
-2 0 -7 -4 -10 -10z"/>
</g>
</svg>
