<?xml version="1.0" encoding="UTF-8"?>
<svg width="512" height="512" viewBox="0 0 512 512" xmlns="http://www.w3.org/2000/svg">
  <path d="M128 0C57.308 0 0 57.308 0 128v256c0 70.692 57.308 128 128 128h256c70.692 0 128-57.308 128-128V128C512 57.308 454.692 0 384 0H128zm48 160.672c0-5.57 1.715-10.074 5.145-13.511 3.43-3.438 7.934-5.157 13.511-5.157 2.137 0 4.008.285 5.613.855 1.605.57 3.004 1.293 4.196 2.168 1.192.875 2.3 1.875 3.325 3 1.023 1.125 2.218 2.219 3.586 3.281l.984.633c1.914 1.156 3.903 2.133 5.966 2.93 2.063.795 4.137 1.253 6.223 1.37 2.297 0 4.402-.316 6.316-.949 1.914-.633 3.57-1.465 4.969-2.496 1.399-1.032 2.496-2.188 3.293-3.469.797-1.281 1.195-2.563 1.195-3.844 0-1.516-.41-2.871-1.23-4.066-.819-1.196-1.945-2.274-3.378-3.235-1.434-.961-3.134-1.828-5.098-2.602-1.965-.773-4.102-1.523-6.41-2.25-2.743-.86-5.571-1.863-8.485-3.012a32.763 32.763 0 01-8.132-4.512c-2.485-1.86-4.5-4.125-6.047-6.797-1.547-2.672-2.32-5.933-2.32-9.785 0-4.281.82-8.144 2.461-11.586 1.64-3.441 3.902-6.37 6.785-8.785 2.883-2.414 6.293-4.266 10.23-5.555 3.938-1.289 8.204-1.933 12.797-1.933 4.657 0 8.938.656 12.844 1.969 3.906 1.312 7.285 3.078 10.137 5.296 2.851 2.22 5.066 4.829 6.644 7.829 1.578 3 2.367 6.18 2.367 9.54 0 2.609-.539 4.925-1.617 6.948-1.078 2.023-2.566 3.035-4.465 3.035-1.828 0-3.293-.492-4.394-1.476-1.102-.985-1.653-2.309-1.653-3.973 0-.304.082-.718.246-1.242a9.732 9.732 0 00.351-1.207c.082-.414.13-.758.147-1.031v-.844c0-1.477-.293-2.872-.879-4.184-.586-1.313-1.488-2.461-2.707-3.445-1.219-.985-2.754-1.77-4.605-2.356-1.852-.586-4.020-.879-6.504-.879-2.274 0-4.336.328-6.188.984-1.851.657-3.433 1.547-4.746 2.672a11.598 11.598 0 00-3.011 4.02c-.703 1.547-1.055 3.222-1.055 5.027 0 2.18.493 3.993 1.477 5.437.984 1.445 2.297 2.684 3.937 3.715 1.641 1.032 3.528 1.911 5.661 2.637 2.133.727 4.348 1.465 6.645 2.215 3.015.985 5.839 2.051 8.472 3.2 2.633 1.147 4.934 2.577 6.903 4.288 1.969 1.711 3.516 3.785 4.641 6.223 1.125 2.437 1.688 5.379 1.688 8.824 0 4.789-.961 8.965-2.883 12.528-1.922 3.562-4.488 6.504-7.699 8.824-3.211 2.32-6.902 4.043-11.074 5.168-4.172 1.125-8.496 1.687-12.973 1.687-4.828 0-9.254-.668-13.277-2.004-4.024-1.335-7.489-3.211-10.395-5.625-2.906-2.414-5.168-5.309-6.785-8.683-1.617-3.375-2.426-7.102-2.426-11.18zm126.523 0c0-5.57 1.715-10.074 5.145-13.511 3.43-3.438 7.934-5.157 13.512-5.157 2.136 0 4.007.285 5.613.855 1.605.57 3.003 1.293 4.195 2.168 1.192.875 2.301 1.875 3.324 3 1.024 1.125 2.219 2.219 3.586 3.281l.985.633c1.914 1.156 3.902 2.133 5.965 2.93 2.063.795 4.137 1.253 6.223 1.37 2.297 0 4.403-.316 6.317-.949 1.914-.633 3.57-1.465 4.968-2.496 1.399-1.032 2.496-2.188 3.293-3.469.797-1.281 1.196-2.563 1.196-3.844 0-1.516-.411-2.871-1.231-4.066-.82-1.196-1.945-2.274-3.379-3.235-1.433-.961-3.132-1.828-5.097-2.602-1.965-.773-4.102-1.523-6.41-2.25-2.742-.86-5.57-1.863-8.484-3.012a32.763 32.763 0 01-8.133-4.512c-2.484-1.86-4.5-4.125-6.047-6.797-1.547-2.672-2.32-5.933-2.32-9.785 0-4.281.82-8.144 2.461-11.586 1.64-3.441 3.902-6.37 6.785-8.785 2.883-2.414 6.293-4.266 10.23-5.555 3.938-1.289 8.203-1.933 12.797-1.933 4.656 0 8.938.656 12.844 1.969 3.906 1.312 7.285 3.078 10.137 5.296 2.852 2.22 5.066 4.829 6.644 7.829 1.578 3 2.368 6.18 2.368 9.54 0 2.609-.54 4.925-1.618 6.948-1.078 2.023-2.566 3.035-4.464 3.035-1.828 0-3.293-.492-4.395-1.476-1.101-.985-1.652-2.309-1.652-3.973 0-.304.082-.718.246-1.242a9.732 9.732 0 00.351-1.207c.082-.414.129-.758.147-1.031v-.844c0-1.477-.293-2.872-.879-4.184-.586-1.313-1.488-2.461-2.707-3.445-1.219-.985-2.754-1.77-4.605-2.356-1.852-.586-4.02-.879-6.504-.879-2.274 0-4.336.328-6.188.984-1.851.657-3.433 1.547-4.746 2.672a11.598 11.598 0 00-3.011 4.02c-.703 1.547-1.055 3.222-1.055 5.027 0 2.18.493 3.993 1.477 5.437.984 1.445 2.297 2.684 3.937 3.715 1.641 1.032 3.528 1.911 5.661 2.637 2.133.727 4.348 1.465 6.644 2.215 3.016.985 5.84 2.051 8.473 3.2 2.633 1.147 4.934 2.577 6.903 4.288 1.969 1.711 3.516 3.785 4.641 6.223 1.125 2.437 1.687 5.379 1.687 8.824 0 4.789-.96 8.965-2.882 12.528-1.922 3.562-4.489 6.504-7.7 8.824-3.21 2.32-6.902 4.043-11.074 5.168-4.172 1.125-8.496 1.687-12.973 1.687-4.828 0-9.254-.668-13.277-2.004-4.024-1.335-7.489-3.211-10.395-5.625-2.906-2.414-5.168-5.309-6.785-8.683-1.617-3.375-2.426-7.102-2.426-11.18zM112 380a12 12 0 0112-12h264a12 12 0 110 24H124a12 12 0 01-12-12z"/>
</svg>
