<svg width="1200" height="600" xmlns="http://www.w3.org/2000/svg">
  <defs>
    <linearGradient id="overlay" x1="0" y1="0" x2="0" y2="1">
      <stop offset="0%" style="stop-color:#000;stop-opacity:0.4"/>
      <stop offset="100%" style="stop-color:#000;stop-opacity:0.7"/>
    </linearGradient>
  </defs>

  <rect width="100%" height="100%" fill="#1E3A5F" />
  
  <!-- Фоновые элементы -->
  <circle cx="150" cy="250" r="100" fill="#2D5D7B" opacity="0.5" />
  <circle cx="950" cy="150" r="120" fill="#4B6587" opacity="0.4" />
  <circle cx="550" cy="450" r="90" fill="#3A506B" opacity="0.4" />
  
  <!-- Иконка сообщения -->
  <g transform="translate(300, 150)" opacity="0.8">
    <rect x="0" y="0" width="140" height="100" rx="15" fill="#F9FAFC" />
    <path d="M20 30 L120 30 M20 50 L100 50 M20 70 L80 70" stroke="#6A7C92" stroke-width="8" stroke-linecap="round" />
  </g>
  
  <!-- Иконка телефона -->
  <g transform="translate(550, 200)" opacity="0.8">
    <rect x="0" y="0" width="80" height="140" rx="15" fill="#F9FAFC" />
    <circle cx="40" cy="110" r="12" fill="#6A7C92" />
    <rect x="15" y="15" width="50" height="80" rx="5" fill="#6A7C92" />
  </g>
  
  <!-- Иконка чата -->
  <g transform="translate(750, 180)" opacity="0.8">
    <path d="M10 0 L130 0 Q140 0 140 10 L140 70 Q140 80 130 80 L80 80 L60 100 L40 80 L10 80 Q0 80 0 70 L0 10 Q0 0 10 0" fill="#F9FAFC" />
    <circle cx="40" cy="40" r="5" fill="#6A7C92" />
    <circle cx="70" cy="40" r="5" fill="#6A7C92" />
    <circle cx="100" cy="40" r="5" fill="#6A7C92" />
  </g>
  
  <!-- Декоративные элементы -->
  <g transform="translate(350, 350)" opacity="0.6">
    <circle cx="0" cy="0" r="8" fill="#FFD700" />
  </g>
  
  <g transform="translate(750, 400)" opacity="0.6">
    <circle cx="0" cy="0" r="6" fill="#FFD700" />
  </g>
  
  <g transform="translate(600, 150)" opacity="0.6">
    <circle cx="0" cy="0" r="10" fill="#FFD700" />
  </g>
  
  <g transform="translate(900, 300)" opacity="0.6">
    <circle cx="0" cy="0" r="7" fill="#FFD700" />
  </g>

  <!-- Градиентный оверлей -->
  <rect width="100%" height="100%" fill="url(#overlay)" />
</svg> 