<svg width="1200" height="600" xmlns="http://www.w3.org/2000/svg">
  <rect width="100%" height="100%" fill="#1E3A5F" />
  
  <!-- Фоновые элементы -->
  <circle cx="200" cy="300" r="80" fill="#2D5D7B" opacity="0.5" />
  <circle cx="1000" cy="200" r="100" fill="#4B6587" opacity="0.4" />
  <circle cx="600" cy="500" r="120" fill="#3A506B" opacity="0.4" />
  
  <!-- Иконки отзывов (схематично) -->
  <g transform="translate(300, 150)" opacity="0.8">
    <rect x="0" y="0" width="100" height="120" rx="10" fill="#F9FAFC" />
    <rect x="20" y="20" width="60" height="8" rx="4" fill="#6A7C92" />
    <rect x="20" y="40" width="40" height="8" rx="4" fill="#6A7C92" />
    <rect x="20" y="60" width="60" height="8" rx="4" fill="#6A7C92" />
    <rect x="20" y="80" width="30" height="8" rx="4" fill="#6A7C92" />
  </g>
  
  <g transform="translate(500, 250)" opacity="0.8">
    <rect x="0" y="0" width="100" height="120" rx="10" fill="#F9FAFC" />
    <rect x="20" y="20" width="60" height="8" rx="4" fill="#6A7C92" />
    <rect x="20" y="40" width="40" height="8" rx="4" fill="#6A7C92" />
    <rect x="20" y="60" width="60" height="8" rx="4" fill="#6A7C92" />
    <rect x="20" y="80" width="30" height="8" rx="4" fill="#6A7C92" />
  </g>
  
  <g transform="translate(800, 180)" opacity="0.8">
    <rect x="0" y="0" width="100" height="120" rx="10" fill="#F9FAFC" />
    <rect x="20" y="20" width="60" height="8" rx="4" fill="#6A7C92" />
    <rect x="20" y="40" width="40" height="8" rx="4" fill="#6A7C92" />
    <rect x="20" y="60" width="60" height="8" rx="4" fill="#6A7C92" />
    <rect x="20" y="80" width="30" height="8" rx="4" fill="#6A7C92" />
  </g>
  
  <!-- Звездочки для обозначения рейтинга (схематично) -->
  <g transform="translate(350, 350)" opacity="0.9">
    <polygon points="0,0 2,5 8,6 4,10 5,15 0,12 -5,15 -4,10 -8,6 -2,5" fill="#FFD700" />
  </g>
  
  <g transform="translate(750, 400)" opacity="0.9">
    <polygon points="0,0 2,5 8,6 4,10 5,15 0,12 -5,15 -4,10 -8,6 -2,5" fill="#FFD700" />
  </g>
  
  <g transform="translate(600, 200)" opacity="0.9">
    <polygon points="0,0 2,5 8,6 4,10 5,15 0,12 -5,15 -4,10 -8,6 -2,5" fill="#FFD700" />
  </g>
  
  <g transform="translate(900, 300)" opacity="0.9">
    <polygon points="0,0 2,5 8,6 4,10 5,15 0,12 -5,15 -4,10 -8,6 -2,5" fill="#FFD700" />
  </g>
  
  <!-- Подпись на фоне -->
  <text x="50%" y="50%" font-family="Arial, sans-serif" font-size="32" font-weight="bold" fill="white" text-anchor="middle">Отзывы клиентов</text>
  <text x="50%" y="56%" font-family="Arial, sans-serif" font-size="24" fill="#FFD700" text-anchor="middle">Миненков Rehab</text>
</svg> 